# xmcd
#
# Track frame offsets:
#	150
#	12308
#	24382
#	34303
#	45650
#	56986
#	67840
#	77984
#	88689
#	100705
#	111075
#	124295
#	136063
#	145062
#	156015
#	166134
#	175227
#	184602
#	196832
#	208784
#	219203
#	229269
#	241788
#	253123
#	265790
#
# Disc length: 3671 seconds
#
# Revision: 1
# Processed by: cddbd v1.5.2PL0 Copyright (c) Steve Scherf et al.
# Submitted via: audiograbber 1.83.01
#
DISCID=530e5519
DTITLE=Various Artist - Northern Soul Collector, Vol. 3
DYEAR=2013
DGENRE=Soul
TTITLE0=Johnny Dynamite - The Night The Angels Cried
TTITLE1=Roscoe Shelton - Soon As Darkness Falls
TTITLE2=The Furys - I'm Satisfied With You
TTITLE3=Delores Hall - Good Lovin' Man
TTITLE4=The Fantastics - Me And You
TTITLE5=The Shadows - My Love Is Gone
TTITLE6=Ruby Andrews - Wonderful Nite
TTITLE7=Denise Chandler - I'm Walking Away
TTITLE8=June Conquest - All I Need
TTITLE9=Ruby Winters - Better
TTITLE10=Sidney Barnes - I Hurt On The Other Side
TTITLE11=Betty Everett - I Can't Hear You
TTITLE12=Willie Harper - But I Couldn't
TTITLE13=Gene Chandler - Bet You Never Thought
TTITLE14=Joe Murphy - So Blue (Without You)
TTITLE15=Joe Simon - The Girl's Alright With Me
TTITLE16=The Dynettes - New Guy
TTITLE17=Little Jerry Williams - Just What Do You Plan To Do About It
TTITLE18=The Whispers - The Dip
TTITLE19=The Poets - I'm Stuck On You
TTITLE20=Roddie Joy - If There's Anything Else You Want (Let Me Know)
TTITLE21=Paul (Guitar Red) Johnson and Kenneth Wells - That I Love You
TTITLE22=Sam Fletcher - I'd Think It Over Twice
TTITLE23=The Fi-Dels - You Never Do Right (My Baby)
TTITLE24=Zilla Mayes - All I Want Is You
EXTD=
EXTT0=
EXTT1=
EXTT2=
EXTT3=
EXTT4=
EXTT5=
EXTT6=
EXTT7=
EXTT8=
EXTT9=
EXTT10=
EXTT11=
EXTT12=
EXTT13=
EXTT14=
EXTT15=
EXTT16=
EXTT17=
EXTT18=
EXTT19=
EXTT20=
EXTT21=
EXTT22=
EXTT23=
EXTT24=
PLAYORDER=
